<?xml version="1.0" encoding="UTF-8"?>
<svg id="Capa_1" data-name="Capa 1" xmlns="http://www.w3.org/2000/svg" viewBox="0 0 351.25 134.89">
  <defs>
    <style>
      .cls-1 {
        fill: #f2f2ef;
      }

      .cls-2 {
        fill: #bab4ae;
      }
    </style>
  </defs>
  <path class="cls-2" d="M104.3,111.87v-.86l1.5-.62c.11-.04.19-.1.25-.16.05-.06.08-.16.08-.29v-9.65c0-.13-.03-.22-.09-.27-.06-.06-.14-.1-.24-.14l-1.5-.62v-.86h6.86c.97,0,1.84.14,2.63.4.79.27,1.41.69,1.88,1.27.47.58.7,1.33.7,2.26,0,.98-.2,1.82-.61,2.53-.41.71-.97,1.25-1.68,1.64-.72.39-1.54.58-2.46.58-.33,0-.74-.07-1.23-.21-.49-.14-.87-.32-1.16-.52v-1.21c.16.06.4.11.72.14.32.03.61.04.88.04.47,0,.84-.09,1.12-.28.28-.19.5-.41.65-.69.15-.28.25-.56.31-.84s.08-.52.08-.71c0-.47-.08-.91-.23-1.32-.16-.41-.43-.74-.81-.99-.38-.25-.91-.38-1.6-.38h-1.04v9.83c0,.13.03.23.1.3s.15.11.24.15l1.57.62v.86h-6.94Z"/>
  <path class="cls-2" d="M120.21,111.87v-.86l1.5-.62c.09-.03.17-.08.23-.15.06-.06.09-.16.09-.3v-9.65c0-.13-.03-.22-.09-.27-.06-.06-.14-.1-.23-.14l-1.5-.62v-.86h7.01c1.03,0,1.88.1,2.53.3.65.2,1.16.47,1.51.8.35.33.6.7.73,1.1s.2.81.2,1.22c0,.68-.13,1.26-.4,1.74-.27.48-.61.88-1.04,1.19-.43.31-.89.54-1.37.7l-2.49.87-1.8-.46.1-1.31s.12.03.3.05c.18.02.38.04.6.05s.38.02.49.02c.51,0,.93-.11,1.26-.33s.56-.51.72-.87c.16-.36.24-.73.24-1.12,0-.78-.2-1.35-.61-1.71-.41-.36-1.01-.54-1.79-.54h-1.17v9.83c0,.13.03.23.1.29.07.06.15.11.24.15l1.49.62v.86h-6.86ZM134.85,111.87h-3.53c-.43,0-.75-.05-.96-.14s-.38-.23-.5-.43c-.13-.19-.29-.44-.49-.73l-2.94-4.46,3.08-.83,3.2,4.66c.07.11.17.22.28.34.12.12.24.2.38.24l1.48.48v.86Z"/>
  <path class="cls-2" d="M144.29,112.17c-1.49,0-2.76-.28-3.79-.85-1.03-.56-1.82-1.37-2.35-2.43s-.8-2.32-.8-3.79c0-1.38.28-2.59.83-3.65s1.35-1.88,2.39-2.48c1.04-.59,2.29-.89,3.74-.89,1.59,0,2.89.31,3.91.92,1.02.61,1.78,1.44,2.28,2.5.5,1.06.75,2.26.75,3.61,0,.91-.13,1.78-.4,2.63-.27.84-.68,1.6-1.24,2.27s-1.28,1.2-2.16,1.59c-.88.39-1.93.58-3.16.58ZM144.44,110.53c.75,0,1.37-.21,1.87-.64.5-.42.87-1.02,1.12-1.79.25-.77.37-1.66.37-2.7,0-1.19-.13-2.2-.39-3.05-.26-.85-.66-1.5-1.2-1.95-.54-.46-1.23-.68-2.06-.68s-1.44.23-1.93.68c-.49.45-.85,1.06-1.07,1.82-.22.77-.34,1.62-.34,2.56,0,1.18.13,2.19.38,3.05.25.86.65,1.52,1.18,1.99.53.46,1.22.7,2.06.7Z"/>
  <path class="cls-2" d="M155.25,111.87v-.86l1.5-.62c.09-.03.17-.08.23-.15.06-.06.09-.16.09-.3v-9.65c0-.13-.03-.22-.09-.27-.06-.06-.14-.1-.23-.14l-1.5-.62v-.86h6.85c.59,0,1.22.06,1.89.19.67.12,1.32.33,1.95.63.63.3,1.21.7,1.72,1.21.51.52.93,1.16,1.23,1.94.31.78.46,1.71.46,2.79,0,1.53-.33,2.79-.98,3.78-.66.99-1.54,1.72-2.66,2.21-1.12.48-2.37.72-3.75.72h-6.71ZM160.27,100.11v10.05h1.86c1.32,0,2.29-.42,2.89-1.25.6-.83.9-2,.9-3.5,0-1.1-.17-2.04-.52-2.83-.35-.79-.84-1.4-1.48-1.83-.64-.43-1.4-.64-2.28-.64h-1.37Z"/>
  <path class="cls-2" d="M180.53,112.19c-1.25,0-2.29-.19-3.13-.58-.84-.39-1.47-.91-1.89-1.57-.42-.66-.63-1.39-.63-2.19v-7.56c0-.13-.03-.22-.1-.27s-.15-.1-.25-.14l-1.47-.62v-.86h6.86v.86l-1.5.62c-.07.03-.15.08-.22.13-.07.06-.11.15-.11.28v6.67c0,.37.04.75.11,1.13.08.39.22.74.43,1.07s.51.59.91.79c.4.2.92.3,1.56.3s1.16-.1,1.57-.3.74-.46.98-.79c.24-.33.41-.69.5-1.09.1-.39.14-.79.14-1.17v-6.55c0-.13-.03-.22-.09-.26-.06-.05-.14-.09-.22-.14l-1.49-.68v-.86h5.52v.86l-1.49.68c-.09.04-.17.09-.23.14s-.1.14-.1.26v7.1c0,.86-.19,1.59-.56,2.19-.37.6-.85,1.09-1.43,1.47-.58.38-1.2.65-1.86.83-.65.18-1.26.26-1.81.26Z"/>
  <path class="cls-2" d="M203.13,108.75h.75v1.38c-.36.29-.81.6-1.35.91-.53.31-1.13.57-1.77.79-.64.21-1.32.32-2.03.32-1.4,0-2.62-.28-3.67-.84-1.05-.56-1.87-1.36-2.45-2.41-.58-1.04-.88-2.29-.88-3.75s.3-2.69.91-3.75c.61-1.05,1.44-1.87,2.5-2.45,1.06-.58,2.28-.87,3.64-.87.5,0,1.05.04,1.66.12.61.08,1.2.17,1.77.28.57.11,1.04.2,1.41.29v3.8h-1.4l-.47-1.79c-.02-.07-.08-.15-.18-.23-.1-.08-.18-.14-.25-.18-.32-.18-.64-.33-.96-.45-.33-.12-.7-.18-1.13-.18-1.23,0-2.21.41-2.95,1.22-.74.82-1.11,2.06-1.11,3.73s.4,3.08,1.21,3.98c.81.91,1.9,1.36,3.29,1.36.54,0,1.04-.08,1.48-.22.44-.15.82-.32,1.15-.53.33-.2.6-.38.81-.55Z"/>
  <path class="cls-2" d="M210.38,111.87v-.86l1.58-.62c.1-.04.18-.09.25-.15.06-.06.09-.16.09-.29v-9.85h-2.71c-.11,0-.19.03-.26.09-.06.06-.11.14-.14.27l-.46,2.01h-1.41v-4.05h13.17v4.05h-1.42l-.46-2.01c-.02-.12-.07-.21-.15-.26-.08-.06-.16-.09-.24-.09h-2.71v9.85c0,.13.03.23.1.3s.15.12.23.14l1.58.62v.86h-7.03Z"/>
  <path class="cls-2" d="M224.1,111.87v-.86l1.59-.62c.11-.04.19-.09.24-.15.05-.06.08-.16.08-.29v-9.65c0-.13-.03-.22-.1-.28-.06-.06-.14-.1-.23-.13l-1.59-.62v-.86h7.05v.86l-1.59.62c-.1.04-.18.08-.24.14s-.1.14-.1.27v9.65c0,.13.03.23.1.3s.15.11.24.15l1.59.62v.86h-7.05Z"/>
  <path class="cls-2" d="M242.06,112.17c-1.49,0-2.76-.28-3.79-.85-1.03-.56-1.82-1.37-2.35-2.43-.53-1.06-.8-2.32-.8-3.79,0-1.38.28-2.59.83-3.65s1.35-1.88,2.39-2.48c1.04-.59,2.29-.89,3.74-.89,1.59,0,2.89.31,3.91.92,1.02.61,1.78,1.44,2.28,2.5.5,1.06.75,2.26.75,3.61,0,.91-.13,1.78-.4,2.63-.27.84-.68,1.6-1.24,2.27-.56.67-1.28,1.2-2.16,1.59-.88.39-1.93.58-3.16.58ZM242.21,110.53c.75,0,1.37-.21,1.87-.64.5-.42.87-1.02,1.12-1.79.25-.77.37-1.66.37-2.7,0-1.19-.13-2.2-.39-3.05-.26-.85-.66-1.5-1.2-1.95-.54-.46-1.23-.68-2.06-.68s-1.44.23-1.93.68c-.49.45-.85,1.06-1.07,1.82-.22.77-.34,1.62-.34,2.56,0,1.18.13,2.19.38,3.05.25.86.65,1.52,1.18,1.99.53.46,1.22.7,2.06.7Z"/>
  <path class="cls-2" d="M253.02,111.87v-.86l1.5-.69c.1-.04.18-.09.24-.14.06-.06.09-.15.09-.28v-9.6c0-.13-.03-.22-.09-.27-.06-.06-.14-.1-.23-.14l-1.55-.62v-.86h5.04l5.59,8.04.67,1.17h.2v-7.27c0-.1-.02-.17-.06-.22-.04-.05-.14-.11-.28-.18l-1.49-.68v-.86h5.53v.86l-1.5.68c-.13.06-.21.12-.26.17s-.07.13-.07.23v9.48l-.29,2.13h-2.2l-6.26-8.95-.64-1.16h-.19v8.04c0,.11.03.2.08.26.05.06.13.11.23.16l1.48.69v.86h-5.52Z"/>
  <path class="cls-1" d="M33.99,134.87c-2.94-.99,15.71-49.82,15.71-49.82-7.21,3.06-14.85,5.7-22.68,6.74-6.41.86-15.05.88-21.26-.88-1.88-.53-5.04-1.5-5.76-3.36,11.63,3.43,35.71,0,48.39-7.48,1.35-.8,2.9-2.19,3.76-3.16.81-.92,2-4.79,2.42-6.18,4.77-15.5,17.88-55.65,31.27-67.23,6.81-5.89,9.31-2.92,10.58-.32,1.93,3.94,1.47,10.14,1.13,13.33-2.71,25.63-21.76,49.84-41.26,65.03-8.8,22.93-19.29,54.36-22.31,53.33ZM92.66,8.92c-.1-3.85-3.49-5.93-12.87,10.86-7.22,12.92-11.92,27.24-16.84,41.23-.5,1.42-3.99,11.38-3.99,11.38,25.68-22.42,34-52.06,33.71-63.47Z"/>
  <path class="cls-1" d="M165.51,63.41c2.31,8.15-6.79,17-9.5,15.94-2.35-.91.09-4.76,1.11-7.36,1.41-3.59,5.5-9.84,6.14-12.97.56-2.74-.72-5.43-3.6-5.44-2.99-.02-7.39,5.03-9.59,7.04-2.47,2.26-4.6,4.92-7.2,7.03,1.37-3.43,6.7-10.53,2.48-12.12-1.48-.56-3.16,0-4.22,1.17-4.41,4.88-8.09,10.42-12.5,15.28-1.37,1.51-3.91,4.46-6.13,6.12-.49.36-2.36,1.48-2.36.17,0-4.7,7.27-13.4,9.68-17.73.71-1.28.8-2.42.02-3.01-2.66-2.03-7.02,3.99-7.62,4.81h0s0,0,0,0c-3.26,4.47-10.75,12.26-12.51,13.78-1.29,1.11-3.33,3.18-5.08,2.54-1.42-1.01,1.55-6.64,2.26-7.88,2.19-3.86,8.69-11.65,13.17-12.42.46-.08,1.18-.17,1.87-.11.6.05,2.94.19,3.65-1.09.99-1.78-.68-2.88-.95-3.01-4.22-1.97-10.33,1.61-13.31,4.12-5.41,4.54-8.87,10.77-14.42,15.5-2.13,1.82-7.17,5.35-10.59,5.2-3.13-.14-3.21-3.13-2.38-4.48.28-.46,9.57-1.45,16.24-10.8,5.84-8.2-1.23-12.88-8.92-8.2-6.44,3.92-9.45,9.78-11.9,16.76-2.11,1.12-6.74,2.36-6.03,3.47.57.75,4.31-.23,5.39-.14-1.06,4.82.77,7.11,3.99,7.8,5.02,1.08,12.24-3.93,16.38-7.8,0,2.31-.84,4.7.89,6.67,1.23,1.4,3.72,1.47,5.43,1.09,4.64-1.04,9.11-7.8,10.43-8.85-.55,1.97-2.05,7.33.98,8.57,3.84,1.58,8.75-3.15,11.3-6.22l8.99-10.29c-1.05,3.31-6.57,12.25-5.65,15.37.54,1.84,3.02,2.18,4.42.6,1.26-1.43,2.74-4.79,4.18-6.71,2.73-3.64,8-8.93,11.47-11.96.46-.41,3.93-3.66,5.59-4.66.44-.27.99.19.78.66-.72,1.67-2.66,4.14-3.54,5.74-2.2,4.03-6.22,11.33-3.97,15.63.56,1.06,1.38,1.73,2.36,1.97,5.91,1.45,11.77-4.41,13.72-10.94,1.91-6.37-1.21-9.84-.93-8.86ZM89.37,62.63c1.38-1.79,3.66-3.95,6-4.54.75-.19,1.43.5,1.25,1.26-.43,1.88-1.84,3.62-2.92,5.1-3,4.11-8.15,5.36-8.15,5.36,0,0,.25-2.53,3.82-7.18Z"/>
  <path class="cls-1" d="M334.55,34.97c-.96.35,13.88,2.14,13.82,14.44-.05,10.22-10.46,15.41-20.35,18.72.27-3.76-.12-10.14-.29-12.15-.1-1.12-.48-2.18-1.59-2.37l-.34-.06c-.71-.06-1.34.26-1.87.74-2.59,2.32-7.89,8.71-15.64,10.45,0,0,.71-2.52.86-3.83.26-2.38-.27-6.27-3.1-6.91-1.37-.31-2.18.25-3.18.23-1.23-.03-1.63-.85-3.43-.51-5.21.99-9.57,9.78-12.49,13.92-2.59,3.67-9.36,11.71-11.66,11.16-.89-.21.09-3.75,3.09-8.71,3.26-5.39,28.88-64,29.22-64.73,2.26-4.76.69-6.26-2.2-.93-.26.48-8.43,16.01-16.92,33.22-5.61,11.37-12.35,22.88-17.86,29.95-5.94,7.61-10.11,11.99-11.72,11.34-1.85-.74,4.68-12.24,8.91-15.67,3.69-3-2.19-3.51-5.46-5.64-3.61-2.35-.55-4.02-2.46-5.44-1.51-1.12-3.72-.45-4.66,1.06-1.35,2.16-.26,5.11-.26,5.11-6.31,13.27-16.76,22.21-17.69,20.41-.07-.13-.18-.26-.18-.5,0-4.7,7.27-13.4,9.68-17.73.71-1.28.8-2.42.02-3.01-2.66-2.03-7.02,3.99-7.62,4.81h0s0,0,0,0c-3.26,4.47-10.75,12.26-12.51,13.78-1.29,1.11-3.33,3.18-5.08,2.54-1.42-1.01,1.55-6.64,2.26-7.88,2.19-3.86,8.69-11.65,13.17-12.42.46-.08,1.18-.17,1.87-.11.6.05,2.94.19,3.65-1.09.99-1.78-.68-2.88-.95-3.01-4.01-2-10.33,1.61-13.31,4.12-5.41,4.54-9.3,10.31-14.42,15.5-2.97,3.01-18.13,15.32-26.11,5.9-6.38-7.53-2.93-21.99-1.04-28.98,5.85-21.59,21.39-38.96,33.45-44.78,3.61-1.74,7.2-.1,7.1,4.55-.15,7.54-4.93,18.8-9.81,24.46-9.07,10.52,12.72-1.79,14.08-23.32.59-9.31-5.67-13.41-12.56-10.85-29.78,11.07-52.56,64.1-37.06,82.02,7.84,9.06,24.94,3.43,34.12-7.19,0,2.31-.84,4.7.89,6.67,1.23,1.4,3.72,1.47,5.43,1.09,4.64-1.04,9.11-7.8,10.43-8.85-.55,1.97-2.09,7.44.98,8.57,8.41,3.12,21.36-17.74,23.99-22.29,1.19.73,4.19,1.78,4.19,1.78-.05.24-2.55,3.92-4.32,6.38-3.86,5.37-6.13,13.53-1.6,14.28,5.54.91,10.9-6.64,14.92-11.29-1.81,8.44-1.61,11.12,2.23,11.39,4.05.28,8.58-5.01,12.41-9.56-1.43,4.17-.97,9.76,4.59,9.76,10.28,0,15.92-14.7,16.21-14.75,8.55-1.5,16.86-9.09,16.86-9.09.03,3.27-.34,6.92-1.25,10.31-.61.18-1.21.35-1.79.52-4,1.15-6.89,1.97-8.42,2.99-2.89,1.92-3.71,3.52-3.51,6.12.17,2.2,2.27,3.91,5.79,3.91,4.45,0,7.11-1.39,8.9-3.14,2.97-2.9,4.35-7.55,4.66-9.1,10.81-3.5,23.58-9.38,23.64-21.87.06-12.06-14.4-15.29-16.7-14.46ZM302.29,69.02c-.16.44-1.36,2.33-3.09,4.48-1.15,1.43-4.74,6.07-8.18,5.33-1.59-.34-1.85-2.16-1.61-3.95.57-4.26,5.41-11.88,8.45-14.95.14-.14.69-.69.69-.69-.18.59-.49,1.64-.55,2.25-.62,6.34,4.29,7.53,4.29,7.53ZM304.09,65.25c-1.09.82-2.16-1.74-2.16-2.7-.01-3.21,3-5.49,3.28-2.17.05.62,0,4.03-1.12,4.87ZM319.9,75.47c-1.28,2.37-5.13,5.55-7.35,3.49,0,0-1.38-1.28.78-2.89,1.1-.82,4.09-1.61,7.5-2.59-.28.69-.59,1.36-.93,1.99Z"/>
</svg>